<svg width="1761" height="367" viewBox="0 0 1761 367" fill="none" xmlns="http://www.w3.org/2000/svg">
<path d="M1.9779 205.521C36.5348 194.8 77.3677 189.805 112.807 198.543C125.728 201.778 137.385 207.316 147.698 215.826C151.982 219.46 156.507 222.655 161.984 224.375C171.112 227.242 180.261 225.127 188.955 221.763C198.447 217.981 207.594 213.011 217.752 210.879C231.405 208.095 244.354 212.059 255.647 219.823C277.256 234.529 292.496 257.725 306.511 279.252C313.764 290.22 322.144 300.952 333.518 308.05C351.671 319.43 371.877 315.1 389.6 305.423C412.98 292.709 433.11 274.217 454.371 258.344C477.593 240.978 502.789 224.694 531.405 218.562C566.513 210.997 600.8 222.099 629.884 241.904C642.542 250.559 654.079 260.739 666.267 269.992C679.053 279.715 692.079 289 705.515 297.797C728.95 313.08 753.446 326.94 779.216 338.22C812.087 352.68 847.222 363.54 883.296 365.92C896.811 366.77 909.453 365.57 922.675 363.84C932.181 362.63 944.533 361.7 954.931 359.13C978.665 353.31 1001.58 342.49 1018.87 325.01C1023.36 320.47 1026.77 316.07 1033.05 314.24C1037.98 312.8 1043.18 312.94 1048.25 313.58C1061.11 315.36 1073.52 320.31 1085.55 324.91C1114.13 336.02 1143.08 349.05 1174.15 350.4C1209.7 351.92 1238.06 333.24 1256.43 303.65C1269.97 281.829 1279.79 257.683 1292.45 235.38C1303.61 215.819 1315.81 196.69 1330.52 179.503C1355.77 150.122 1388.03 130.581 1426.41 123.812C1448.84 119.852 1471.85 119.776 1494.58 121.257C1521.83 123.078 1548.66 128.521 1576.03 127.268C1650.4 123.549 1714.92 77.1879 1753.01 14.7629C1755.52 10.7149 1757.92 6.60789 1759.98 2.31989C1760.65 0.833892 1758.46 -0.369111 1757.79 1.11689C1750.12 17.1719 1739.09 32.0909 1727.65 45.6509C1702.39 75.5909 1670.27 100.065 1633.15 113.375C1609.71 121.776 1584.83 125.531 1559.88 124.974C1532.98 124.342 1506.32 118.848 1479.36 118.046C1440.72 116.967 1400.95 122.115 1367.67 143.242C1333.54 164.895 1309.94 199.601 1290.32 234.067C1277.66 256.37 1267.84 280.516 1254.3 302.338C1244.04 318.97 1230.04 333.83 1211.77 341.64C1181.78 354.44 1148.36 345.67 1119.14 335.2C1104.73 330.01 1090.73 324.05 1076.38 318.74C1065.67 314.86 1054.29 310.9 1042.77 310.58C1030.07 310.32 1024.46 316.37 1015.81 324.61C997.159 342.49 972.516 353.08 947.356 358.11C938.837 359.86 930.321 360.04 921.762 361.34C917.258 362.01 912.913 362.9 908.42 363.29C881.75 365.36 854.607 360.74 828.907 353.49C777.787 339.01 730.369 312.57 687.193 282.041C650.177 255.888 616.866 220.639 569.86 214.26C541.008 210.418 513.035 218.759 488.095 232.756C463.154 246.754 441.397 265.352 418.794 282.63C401.443 295.797 380.719 312.25 357.867 312.56C324.712 312.92 308.985 276.043 292.195 253.851C274.401 230.109 248.572 201.247 215.59 208.837C196.781 213.216 177.664 230.122 158.011 219.913C150.214 215.922 144.26 209.089 136.582 204.878C126.163 199.163 114.651 195.702 103.075 193.918C80.5413 190.261 57.4166 191.844 34.9957 195.526C23.7304 197.336 12.4439 199.706 1.51466 202.984C-0.243797 203.589 0.449404 205.967 1.9779 205.521Z" fill="#DE3B25"/>
</svg>
